# xmcd CD database file
#
# Track frame offsets:
#	183
#	24983
#	57720
#	77748
#	104108
#	129833
#	147108
#	185475
#	205420
#	232483
#
# Disc length: 3308 seconds
#
# Revision: 0
# Processed by: cddbd v1.4PL0 Copyright (c) Steve Scherf et al.
# Submitted via: CDex 1.50Beta6
#
DISCID=950cea0a
DTITLE=Freddie Hubbard - Blues for Alvina
DYEAR=1900
DGENRE=Jazz
TTITLE0=Apothegm(take 6)
TTITLE1=Blues for Alvina (take 4)
TTITLE2=Minor Mishap (take 4)
TTITLE3=Lex (take 4)
TTITLE4=Apothegm (take 14)
TTITLE5=Number five (take 5)
TTITLE6=Blues for Alvina (take 3)
TTITLE7=Minor Mishap (take 3)
TTITLE8=Lex (take 2)
TTITLE9=Number for five (take 3) (take 3)
EXTD=
EXTT0=
EXTT1=
EXTT2=
EXTT3=
EXTT4=
EXTT5=
EXTT6=
EXTT7=
EXTT8=
EXTT9=
PLAYORDER=
